<?xml version="1.0" encoding="utf-8"?>
<!-- Svg Vector Icons : http://www.onlinewebfonts.com/icon -->
<!DOCTYPE svg PUBLIC "-//W3C//DTD SVG 1.1//EN" "http://www.w3.org/Graphics/SVG/1.1/DTD/svg11.dtd">
<svg version="1.1" xmlns="http://www.w3.org/2000/svg" xmlns:xlink="http://www.w3.org/1999/xlink" x="0px" y="0px"
     viewBox="0 0 1000 1000" enable-background="new 0 0 1000 1000" xml:space="preserve">
<metadata> Svg Vector Icons : http://www.onlinewebfonts.com/icon </metadata>
    <g><g transform="translate(0.000000,511.000000) scale(0.100000,-0.100000)"><path d="M2524.4,4998.8c-59.6-21.1-111.5-86.5-532.6-646.1l-428.8-573l3.8-3678.4l5.8-3676.5l417.3-557.6c228.8-305.7,438.4-576.8,465.3-601.9c61.5-57.7,178.8-73.1,259.6-32.7c38.5,21.1,167.3,173,371.1,446.1c169.2,226.9,317.3,409.6,325,407.6c7.7-3.8,148.1-182.7,311.5-399.9c163.4-217.3,313.4-409.6,336.5-428.8c55.8-51.9,176.9-63.5,250-25c38.5,19.2,173.1,178.8,369.2,438.4c171.1,225,317.3,409.6,326.9,409.6c9.6,0,151.9-180.8,317.3-399.9c165.4-219.2,326.9-417.3,361.5-438.4c75-46.2,205.7-40.4,267.3,13.4c21.1,21.2,173,213.4,336.5,430.7c163.4,217.3,303.8,396.1,311.5,399.9c7.7,1.9,155.7-180.7,324.9-407.6c203.8-273,332.6-424.9,371.1-446.1c80.8-40.4,198.1-25,259.6,32.7c26.9,25,236.5,296.1,465.3,601.9l417.3,557.6V109v3684.1l-417.3,557.6c-228.8,305.7-438.4,576.8-465.3,601.8c-61.5,57.7-178.8,73.1-259.6,32.7c-38.5-21.2-167.3-173.1-371.1-446.1c-169.2-226.9-317.3-409.6-324.9-407.6c-7.7,3.8-148.1,182.7-311.5,399.9c-163.4,217.3-315.4,409.6-336.5,430.7c-61.5,53.8-192.3,59.6-267.3,13.5c-34.6-21.2-196.1-219.2-361.5-438.4c-165.4-219.2-307.6-399.9-317.3-399.9c-9.6,0-151.9,180.8-317.3,399.9c-165.4,219.2-326.9,417.3-361.5,438.4c-75,46.1-205.7,40.4-267.3-13.5c-21.1-21.2-173.1-213.4-336.5-430.7c-163.4-217.3-303.8-396.1-311.5-399.9c-7.7-1.9-155.7,180.8-325,407.6c-190.4,253.8-332.7,424.9-367.3,444.2C2660.9,5012.3,2580.1,5018,2524.4,4998.8z M2930.1,3923.9c176.9-234.6,334.6-425,365.3-442.3c65.4-32.7,151.9-34.6,221.1-3.9c32.7,15.4,175,188.4,367.3,442.3c173.1,230.7,317.3,419.2,323,419.2c5.8,0,150-188.4,323-419.2c317.3-421.1,363.4-465.3,474.9-465.3c111.5,0,157.7,44.2,474.9,465.3c173.1,230.7,317.3,419.2,323,419.2c5.8,0,150-188.4,323-419.2c192.3-253.8,334.6-426.9,367.3-442.3c69.2-30.8,155.7-28.8,221.1,3.9c28.8,15.4,188.4,207.7,365.3,442.3c171.1,228.8,317.3,415.3,324.9,415.3c7.7-1.9,132.7-161.5,278.8-355.7l263.4-355.7V109v-3518.8l-263.4-355.7c-146.1-194.2-271.1-353.8-278.8-355.7c-7.7,0-153.8,186.5-324.9,413.4c-180.8,244.2-332.7,426.9-365.3,442.3c-65.4,34.6-151.9,36.5-221.1,5.8c-32.7-15.4-175-188.4-367.3-442.2c-173.1-230.7-317.3-419.2-323-419.2c-5.8,0-150,188.4-323,419.2c-317.3,421.1-363.4,465.3-474.9,465.3c-111.5,0-157.7-44.2-474.9-465.3c-173.1-230.7-317.3-419.2-323-419.2c-5.8,0-150,188.4-323,419.2c-319.2,423-361.5,465.3-476.9,465.3c-113.4,0-167.3-51.9-480.7-471.1c-171.1-226.9-315.3-413.4-323-413.4c-5.8,1.9-130.8,161.5-275,355.7l-265.3,355.7V109v3518.8l265.3,355.7c144.2,194.2,269.2,353.8,276.9,355.7C2612.8,4339.3,2758.9,4152.7,2930.1,3923.9z"/><path
            d="M4831.8,2629.9c0-113.5,0-113.5-61.5-126.9c-190.4-40.4-367.3-182.7-442.2-351.9c-57.7-126.9-42.3-367.3,28.8-488.4c105.8-180.7,280.7-276.9,555.7-305.7c282.7-30.8,344.2-48.1,415.3-123.1c51.9-55.8,61.5-82.7,61.5-155.7c0-76.9-9.6-98.1-67.3-151.9C5170.2,782,4826,787.8,4679.9,934l-73.1,73.1l-136.5-40.4c-75-23.1-140.4-46.2-148.1-53.9c-23.1-23.1,67.3-165.4,155.8-242.3c80.8-73.1,257.7-157.7,325-157.7c23.1,0,28.8-26.9,28.8-115.4V282.1h173.1h173.1v115.4c0,88.5,5.8,115.4,28.8,115.4c67.3,0,244.2,84.6,326.9,157.7c123.1,109.6,182.7,238.4,182.7,401.9c0,171.1-44.2,288.4-146.1,394.2c-115.4,117.3-261.5,178.8-478.8,201.9c-246.1,23.1-300,34.6-367.3,76.9c-105.8,65.4-140.4,234.6-65.4,330.7c128.8,163.4,619.2,153.8,696.1-13.4c11.5-26.9,26.9-50,32.7-50c42.3,0,298,90.4,303.8,107.7c11.5,34.6-113.4,203.8-198,269.2c-44.2,32.7-132.7,75-198.1,94.2l-117.3,36.5v111.5v111.5h-173.1h-173.1V2629.9z"/><path
            d="M2880.1-90.9c-26.9-19.2-38.5-57.7-44.2-148.1c-5.8-103.8-1.9-130.8,34.6-175l40.4-53.8h2092h2092l36.5,40.4c53.8,59.6,53.8,296.1,0,336.5C7075.7-50.5,2935.8-50.5,2880.1-90.9z"/><path
            d="M2887.8-1119.6c-40.4-32.7-46.1-53.9-46.1-173.1c0-226.9-250-203.8,2163.2-203.8c2413.1,0,2163.2-23.1,2163.2,203.8c0,232.7,240.4,209.6-2163.2,209.6C2993.5-1083.1,2932-1085,2887.8-1119.6z"/><path
            d="M2897.4-2136.8c-40.4-26.9-65.4-98.1-65.4-186.5c0-88.4,25-159.6,65.4-186.5c26.9-19.2,4187.9-19.2,4214.8,0c86.5,57.7,86.5,315.4,0,373c-11.5,7.7-959.5,15.4-2107.4,15.4C3856.9-2121.4,2908.9-2129.1,2897.4-2136.8z"/></g></g>
</svg>